<?xml version="1.0" encoding="utf-8"?>
<!-- Generator: Adobe Illustrator 17.0.0, SVG Export Plug-In . SVG Version: 6.00 Build 0)  -->
<!DOCTYPE svg PUBLIC "-//W3C//DTD SVG 1.1//EN" "http://www.w3.org/Graphics/SVG/1.1/DTD/svg11.dtd">
<svg version="1.1" id="Layer_1" xmlns="http://www.w3.org/2000/svg" xmlns:xlink="http://www.w3.org/1999/xlink" x="0px" y="0px"
	 width="200px" height="60px" viewBox="0 0 200 60" enable-background="new 0 0 200 60" xml:space="preserve">
<g>
	<g>
		<polygon fill="#BBBBBB" points="89.191,20.565 89.641,21.08 89.95,20.814 90.16,20.631 91.477,19.486 94.784,16.612 
			90.922,12.185 90.606,12.461 85.78,16.649 88.05,19.252 		"/>
		<polygon fill="#BBBBBB" points="86.566,22.852 87.018,23.37 87.13,23.272 87.539,22.919 88.888,21.754 87.766,20.468 
			86.623,19.154 85.028,17.326 84.91,17.425 83.176,18.919 83.154,18.938 84.278,20.229 		"/>
		<path fill="#BBBBBB" d="M71.869,36.56l3.736-3.163l-2.338-2.683l-1.146-1.313l-0.391-0.447C71.673,29,71.5,29.143,71.26,29.343
			l-1.368,1.141c-0.903,0.749-1.826,1.514-1.983,1.627l3.915,4.49L71.869,36.56z"/>
		<polygon fill="#BBBBBB" points="78.679,29.85 79.068,30.299 79.182,30.203 79.522,29.908 80.941,28.684 79.818,27.396 
			77.532,24.771 77.08,24.255 76.963,24.355 76.557,24.705 75.207,25.868 76.332,27.158 		"/>
		<polygon fill="#BBBBBB" points="74.91,30.827 76.445,32.588 76.557,32.49 78.222,31.054 78.315,30.972 77.255,29.753 
			74.906,27.06 74.456,26.544 74.339,26.644 73.932,26.994 72.584,28.156 73.768,29.514 		"/>
		<polygon fill="#BBBBBB" points="81.244,27.495 81.694,28.011 81.806,27.915 82.216,27.561 83.564,26.396 82.442,25.107 
			80.154,22.485 79.702,21.967 79.587,22.068 79.181,22.418 77.831,23.58 78.956,24.869 		"/>
		<polygon fill="#BBBBBB" points="83.868,25.205 84.318,25.723 84.429,25.626 84.84,25.271 86.188,24.107 85.066,22.821 
			82.778,20.196 82.328,19.68 82.212,19.779 81.804,20.13 80.456,21.291 81.58,22.582 		"/>
		<path fill="#BBBBBB" d="M99.455,14.217c0.18,0.01,0.364,0.026,0.551,0.049c0.17,0.022,0.342,0.047,0.517,0.077l0.114-0.134
			l0.17-0.2c1.407-1.644,2.976-3.196,4.652-4.684c0.196-0.174,0.391-0.344,0.589-0.515c0.223-0.195,0.449-0.389,0.678-0.582
			c0.204-0.171,0.409-0.342,0.616-0.512c2.23-1.84,4.612-3.596,7.049-5.32c-1.823-0.137-3.16-0.679-3.654-1.919l-9.265,3.806
			l-0.16,0.066l-0.645,0.264l-0.571,0.235l-4.95,2.033L93.99,7.357L93.278,7.65c0.004,0.096,0.006,0.192,0.008,0.287
			c0.002,0.186-0.002,0.372-0.014,0.554c-0.06,0.877-0.303,1.7-0.87,2.426c-0.147,0.187-0.313,0.368-0.506,0.542l0.435,0.5
			l2.824,3.238C96.59,14.497,97.901,14.128,99.455,14.217z"/>
	</g>
	<g>
		<path fill="#BBBBBB" d="M75.925,43.297L75.925,43.297C75.925,43.297,75.877,43.242,75.925,43.297
			c0.13-0.401,0.001-0.769-0.236-1.041l0,0L62.909,27.598l0,0c-0.428-0.491-1.142-0.539-1.632-0.112l0,0l-0.763,0.665l-2.833,2.47
			L56.101,32l-2.833,2.47l-1.58,1.377l-2.833,2.47l-1.58,1.378l-2.833,2.47l-0.763,0.665l0,0c-0.163,0.143-0.279,0.34-0.348,0.591
			l0,0l0,0c-0.075,0.353-0.001,0.768,0.236,1.041l0,0L56.347,59.12l0,0c0.428,0.49,1.141,0.539,1.632,0.112l0,0l0.763-0.665
			l2.832-2.47l1.58-1.378l2.834-2.471l1.58-1.377l2.833-2.47l1.58-1.378l2.833-2.47l0.763-0.665l0,0
			C75.747,43.643,75.809,43.493,75.925,43.297z M50.376,46.774c-0.218,0.19-0.524,0.169-0.714-0.049l-1.758-2.016
			c-0.19-0.218-0.169-0.524,0.049-0.714l0.872-0.76c0.218-0.19,0.524-0.169,0.714,0.049l1.758,2.016
			c0.19,0.218,0.169,0.524-0.049,0.714L50.376,46.774z M53.319,44.209c-0.218,0.19-0.524,0.169-0.714-0.049l-1.758-2.016
			c-0.19-0.218-0.169-0.524,0.049-0.714l0.872-0.76c0.218-0.19,0.524-0.169,0.714,0.049l1.758,2.016
			c0.19,0.218,0.169,0.524-0.049,0.714L53.319,44.209z M56.206,41.691c-0.218,0.19-0.523,0.169-0.713-0.049l-1.758-2.016
			c-0.19-0.218-0.169-0.524,0.048-0.714l0.872-0.76c0.218-0.19,0.524-0.169,0.714,0.049l1.758,2.016
			c0.19,0.218,0.169,0.524-0.049,0.714L56.206,41.691z M53.844,50.751c-0.218,0.19-0.524,0.169-0.714-0.048l-1.758-2.016
			c-0.19-0.218-0.169-0.524,0.049-0.714l0.872-0.76c0.218-0.19,0.524-0.169,0.714,0.049l1.758,2.016
			c0.19,0.218,0.169,0.523-0.049,0.713L53.844,50.751z M56.786,48.186c-0.218,0.19-0.524,0.169-0.713-0.049l-1.758-2.016
			c-0.19-0.218-0.169-0.524,0.049-0.714l0.872-0.76c0.218-0.19,0.524-0.169,0.714,0.049l1.758,2.016
			c0.19,0.218,0.169,0.523-0.049,0.713L56.786,48.186z M59.674,45.668c-0.218,0.19-0.523,0.169-0.713-0.049l-1.758-2.016
			c-0.19-0.218-0.169-0.524,0.048-0.714l0.872-0.76c0.218-0.19,0.524-0.169,0.714,0.049l1.758,2.016
			c0.19,0.218,0.169,0.523-0.049,0.713L59.674,45.668z M57.36,54.784c-0.218,0.19-0.524,0.169-0.714-0.049l-1.758-2.016
			c-0.19-0.218-0.169-0.524,0.049-0.714l0.872-0.76c0.218-0.19,0.524-0.169,0.714,0.049l1.758,2.016
			c0.19,0.218,0.169,0.524-0.049,0.714L57.36,54.784z M60.302,52.218c-0.218,0.19-0.524,0.169-0.714-0.049l-1.758-2.016
			c-0.19-0.218-0.169-0.524,0.049-0.714l0.872-0.76c0.218-0.19,0.524-0.169,0.714,0.049l1.758,2.016
			c0.19,0.218,0.169,0.524-0.049,0.714L60.302,52.218z M63.19,49.7c-0.218,0.19-0.523,0.169-0.713-0.049l-1.758-2.016
			c-0.19-0.218-0.169-0.524,0.048-0.714l0.872-0.76c0.218-0.19,0.524-0.169,0.714,0.049l1.758,2.016
			c0.19,0.218,0.169,0.524-0.049,0.714L63.19,49.7z M66.383,47.203L66.383,47.203c-0.218,0.19-0.523,0.169-0.713-0.049
			l-9.074-10.407c-0.19-0.218-0.169-0.524,0.049-0.713l5.067-4.418c0.218-0.19,0.524-0.169,0.714,0.049L71.5,42.071
			c0.19,0.218,0.169,0.524-0.049,0.714L66.383,47.203z"/>
	</g>
</g>
<text transform="matrix(1 0 0 1 79.2579 87.0902)" fill="#333333" font-family="'Yellowtail'" font-size="24">Stringulator</text>
<g>
	<path fill="#333333" stroke="#FFFFFF" stroke-width="0.25" stroke-miterlimit="10" d="M2.352,33.003L2.12,33.484
		c0,0.344,0.484,0.674,1.452,0.989s2.031,0.472,3.189,0.472s2.432-0.172,3.822-0.517s2.598-0.766,3.626-1.265
		c1.027-0.499,1.877-1.021,2.549-1.568c0.671-0.546,1.007-1.022,1.007-1.425c0-0.511-0.594-0.987-1.782-1.426
		c-1.188-0.439-2.913-0.924-5.176-1.452c-2.263-0.529-3.92-1.197-4.971-2.004c-1.051-0.808-1.577-1.791-1.577-2.949
		s0.416-2.266,1.247-3.323c0.831-1.057,1.915-1.995,3.252-2.815c1.336-0.82,2.794-1.55,4.374-2.191
		c3.267-1.318,6.296-1.978,9.087-1.978c1.069,0,2.013,0.095,2.833,0.285c1.568,0.368,2.352,0.855,2.352,1.461
		c0,0.606-0.053,1.019-0.16,1.238s-0.193,0.365-0.258,0.437c-0.065,0.071-0.148,0.143-0.249,0.214
		c-0.101,0.071-0.175,0.125-0.223,0.16c-0.523,0.439-1.954,0.713-4.294,0.82c-0.808,0.036-1.247,0.077-1.318,0.125
		s-0.134,0.071-0.187,0.071c-0.053,0-0.116-0.048-0.187-0.143c-0.071-0.095-0.107-0.249-0.107-0.463
		c0-0.214,0.232-0.606,0.695-1.176c-1.449,0.083-2.996,0.416-4.641,0.998c-1.646,0.582-3.074,1.238-4.286,1.969
		c-1.212,0.73-2.221,1.449-3.029,2.156c-0.808,0.707-1.212,1.206-1.212,1.497s0.089,0.532,0.267,0.722
		c0.499,0.535,1.883,1.093,4.151,1.675c2.352,0.606,3.92,1.093,4.704,1.461c0.784,0.368,1.434,0.719,1.951,1.051
		s0.929,0.671,1.238,1.016c0.725,0.831,1.087,1.675,1.087,2.531c0,0.855-0.229,1.657-0.686,2.405
		c-0.457,0.748-1.146,1.473-2.067,2.174s-2.004,1.324-3.252,1.871c-2.732,1.223-5.986,1.835-9.764,1.835
		c-2.756,0-4.514-0.73-5.274-2.191C0.101,35.859,0,35.476,0,35.078S0.092,34.321,0.276,34s0.407-0.564,0.668-0.73
		c0.511-0.321,0.873-0.481,1.087-0.481S2.352,32.86,2.352,33.003z"/>
	<path fill="#333333" stroke="#FFFFFF" stroke-width="0.25" stroke-miterlimit="10" d="M35.243,14.953l0.73,0.178
		c0.107,0,0.202,0.053,0.285,0.16c0.083,0.107,0.125,0.208,0.125,0.303s-0.125,0.35-0.374,0.766s-0.543,0.888-0.882,1.416
		s-0.52,0.817-0.543,0.864c0.926-0.071,1.583-0.107,1.969-0.107s0.65,0.027,0.793,0.08c0.143,0.053,0.306,0.202,0.49,0.445
		c0.184,0.243,0.353,0.428,0.508,0.552c0.154,0.125,0.232,0.312,0.232,0.561s-0.151,0.46-0.454,0.632s-0.627,0.276-0.971,0.312
		c-2.756,0.273-4.276,0.416-4.561,0.428c-0.962,1.473-2.307,3.768-4.036,6.886c-1.728,3.119-2.646,5.07-2.753,5.854
		c-0.048,0.356-0.071,0.647-0.071,0.873c0,0.463,0.243,0.695,0.73,0.695s1.027-0.187,1.621-0.561c0.594-0.374,1.14-0.781,1.639-1.22
		c1.33-1.188,2.043-1.782,2.138-1.782c0.309,0,0.463,0.535,0.463,1.604c0,0.582-0.267,1.105-0.802,1.568
		c-1.2,1.033-2.209,1.811-3.029,2.334c-0.82,0.523-1.639,0.784-2.459,0.784c-0.178,0-0.344-0.018-0.499-0.053
		c-0.95-0.178-1.648-0.526-2.093-1.042c-0.445-0.517-0.665-1.215-0.659-2.093c0.006-0.879,0.267-1.945,0.784-3.198
		c0.517-1.253,1.167-2.586,1.951-4.001c1.283-2.304,2.566-4.466,3.848-6.485l-0.677,0.089c-1.378,0.154-2.18,0.232-2.405,0.232
		h-0.16c-0.344,0-0.677-0.068-0.998-0.205c-0.321-0.137-0.481-0.306-0.481-0.508c0-0.202,0.086-0.398,0.258-0.588
		c0.172-0.19,0.276-0.339,0.312-0.445c0.083-0.261,0.395-0.552,0.935-0.873c0.54-0.321,0.947-0.49,1.22-0.508
		c0.273-0.018,0.537-0.033,0.793-0.045c0.255-0.012,0.54-0.024,0.855-0.036c0.315-0.012,0.555-0.024,0.722-0.036l1.604-0.071
		c0.998-1.497,1.684-2.459,2.058-2.886c0.374-0.428,0.591-0.662,0.65-0.704s0.178-0.062,0.356-0.062L35.243,14.953z"/>
	<path fill="#333333" stroke="#FFFFFF" stroke-width="0.25" stroke-miterlimit="10" d="M36.65,28.191
		c2.803-3.183,5.191-4.775,7.162-4.775c0.487,0,0.888,0.146,1.203,0.437c0.315,0.291,0.472,0.668,0.472,1.131
		c0,0.463-0.33,1.238-0.989,2.325s-1.268,2.004-1.826,2.753c-0.297,0.38-0.632,0.57-1.007,0.57c-0.374,0-0.665-0.137-0.873-0.41
		c-0.208-0.273-0.312-0.594-0.312-0.963c0-0.82,0.439-1.746,1.318-2.779l-0.036-0.036c-0.392,0.036-1.363,0.808-2.913,2.316
		c-1.55,1.509-2.869,2.86-3.955,4.054c-1.087,1.194-2.266,2.646-3.537,4.356c-0.368,0.511-0.68,0.766-0.935,0.766
		c-0.255,0-0.594-0.08-1.016-0.241c-0.422-0.16-0.677-0.276-0.766-0.347c-0.089-0.071-0.134-0.19-0.134-0.356
		c0-0.166,0.048-0.359,0.143-0.579c0.095-0.22,0.27-0.532,0.526-0.935c0.255-0.404,0.641-1.057,1.158-1.96
		c0.517-0.903,1.321-2.269,2.414-4.099c1.093-1.829,1.746-2.934,1.96-3.314c0.451-0.784,0.82-1.354,1.105-1.71
		c0.535-0.677,1.437-1.016,2.708-1.016c0.285,0,0.428,0.178,0.428,0.535c0,0.558-0.517,1.609-1.55,3.154L36.65,28.191z"/>
	<path fill="#333333" stroke="#FFFFFF" stroke-width="0.25" stroke-miterlimit="10" d="M52.276,33.893
		c0,0.356-0.036,0.612-0.107,0.766c-0.582,1.188-1.508,2.147-2.779,2.877c-1.271,0.73-2.376,1.096-3.314,1.096
		c-0.938,0-1.746-0.315-2.423-0.944c-0.677-0.63-1.016-1.271-1.016-1.924s0.327-1.604,0.98-2.851
		c0.653-1.247,1.307-2.399,1.96-3.457c0.653-1.057,0.98-1.63,0.98-1.719s-0.122-0.264-0.365-0.526
		c-0.243-0.261-0.365-0.454-0.365-0.579s0.246-0.451,0.739-0.98c0.493-0.529,1.093-1.051,1.8-1.568
		c0.707-0.517,1.247-0.775,1.621-0.775c0.374,0,0.71,0.166,1.007,0.499c0.297,0.333,0.445,0.635,0.445,0.909
		c0,0.273-1.413,2.845-4.24,7.715c-0.036,0.071-0.134,0.229-0.294,0.472c-0.16,0.243-0.285,0.445-0.374,0.606
		s-0.193,0.353-0.312,0.579c-0.238,0.475-0.356,0.873-0.356,1.194c0,0.404,0.273,0.606,0.82,0.606c0.546,0,1.114-0.187,1.702-0.561
		c0.588-0.374,1.096-0.787,1.523-1.238c1.117-1.2,1.752-1.8,1.906-1.8C52.121,32.29,52.276,32.824,52.276,33.893z M55.162,18.338
		c0,0.677-0.315,1.357-0.944,2.04c-0.63,0.683-1.286,1.024-1.969,1.024c-0.683,0-1.024-0.356-1.024-1.069
		c0-0.713,0.3-1.393,0.9-2.04s1.262-0.971,1.987-0.971c0.321,0,0.576,0.089,0.766,0.267C55.067,17.768,55.162,18.018,55.162,18.338z
		"/>
	<path fill="#333333" stroke="#FFFFFF" stroke-width="0.25" stroke-miterlimit="10" d="M60.257,35.158
		c0,0.523,0.356,0.784,1.069,0.784c0.38,0,0.858-0.19,1.434-0.57c0.576-0.38,1.096-0.796,1.559-1.247
		c1.235-1.223,1.936-1.835,2.102-1.835c0.309,0,0.463,0.445,0.463,1.336c0,0.891-0.279,1.503-0.837,1.835
		c-1.699,1.532-3.011,2.465-3.938,2.797c-0.523,0.178-1.099,0.261-1.728,0.249c-0.63-0.012-1.253-0.285-1.871-0.82
		c-0.618-0.535-0.926-1.185-0.926-1.951c0-0.766,0.202-1.636,0.606-2.61c0.404-0.974,0.817-1.808,1.238-2.503
		c0.422-0.695,0.941-1.503,1.559-2.424c0.618-0.921,0.944-1.494,0.98-1.719l-0.036-0.036c-0.392,0.036-1.363,0.808-2.913,2.316
		c-1.55,1.509-2.83,2.822-3.84,3.938c-1.01,1.117-2.215,2.607-3.617,4.472c-0.392,0.511-0.713,0.766-0.962,0.766
		c-0.249,0-0.585-0.08-1.007-0.241s-0.68-0.276-0.775-0.347c-0.095-0.071-0.143-0.178-0.143-0.321c0-0.143,0.042-0.318,0.125-0.526
		s0.163-0.38,0.241-0.517s0.205-0.347,0.383-0.632c0.178-0.285,0.532-0.888,1.06-1.808s1.339-2.295,2.432-4.125
		c1.093-1.829,1.746-2.934,1.96-3.314c0.451-0.784,0.82-1.354,1.105-1.71c0.535-0.677,1.437-1.016,2.708-1.016
		c0.285,0,0.428,0.178,0.428,0.535c0,0.558-0.517,1.609-1.55,3.154l-0.748,1.122c2.055-2.281,3.789-3.724,5.203-4.33
		c0.689-0.297,1.31-0.445,1.862-0.445s0.992,0.148,1.318,0.445c0.327,0.297,0.49,0.627,0.49,0.989c0,0.362-0.125,0.796-0.374,1.301
		c-0.249,0.505-0.502,0.956-0.757,1.354c-0.255,0.398-0.591,0.9-1.007,1.506c-0.416,0.607-0.641,0.936-0.677,0.99
		c-0.036,0.053-0.128,0.196-0.276,0.428s-0.258,0.401-0.33,0.508s-0.19,0.294-0.356,0.561s-0.3,0.49-0.401,0.668
		c-0.101,0.178-0.226,0.398-0.374,0.659c-0.148,0.261-0.267,0.487-0.356,0.677c-0.089,0.19-0.181,0.398-0.276,0.624
		C60.341,34.541,60.257,34.885,60.257,35.158z"/>
	<path fill="#333333" stroke="#FFFFFF" stroke-width="0.25" stroke-miterlimit="10" d="M70.761,26.062
		c1.146-0.79,2.272-1.399,3.376-1.826c1.105-0.428,2.061-0.641,2.869-0.641c0.808,0,1.324,0.232,1.55,0.695
		c0.463-0.535,1.039-0.82,1.728-0.855c0.202-0.012,0.451-0.018,0.748-0.018c0.297,0,0.481,0.039,0.552,0.116
		c0.071,0.077,0.137,0.223,0.196,0.437s0.095,0.333,0.107,0.356c0.012,0.024,0.018,0.062,0.018,0.116
		c0,0.053-0.03,0.119-0.089,0.196c-0.059,0.077-0.128,0.151-0.205,0.223c-0.077,0.071-0.122,0.113-0.134,0.125
		c-2.625,3.765-5.309,8.06-8.053,12.882c2.827-2.506,5.357-4.306,7.59-5.399c0.143-0.071,0.279-0.107,0.41-0.107
		c0.19,0,0.315,0.122,0.374,0.365c0.059,0.243,0.089,0.591,0.089,1.042c0,0.451-0.027,0.73-0.08,0.837
		c-0.053,0.107-0.33,0.321-0.828,0.641c-0.499,0.321-1.146,0.736-1.942,1.247s-1.639,1.075-2.53,1.693
		c-2.138,1.485-3.896,3.047-5.274,4.686c-1.782,2.15-3.059,3.884-3.831,5.203c-0.285,0.511-0.766,0.766-1.443,0.766
		c-1.342,0-2.013-0.635-2.013-1.906c0-1.295,0.635-2.619,1.906-3.973c0.95-1.01,1.823-1.835,2.619-2.477
		c0.796-0.641,1.229-1.004,1.301-1.087c0.879-1.318,2.073-3.189,3.581-5.612c-1.283,1.342-2.527,2.411-3.733,3.207
		c-1.206,0.796-2.105,1.194-2.699,1.194c-1.817,0-2.726-0.778-2.726-2.334c0-1.235,0.315-2.482,0.944-3.742
		c0.63-1.259,1.437-2.384,2.423-3.377C68.548,27.743,69.614,26.852,70.761,26.062z M77.54,25.608
		c-1.378,0.297-2.673,0.787-3.884,1.47c-1.212,0.683-2.209,1.413-2.993,2.191c-0.784,0.779-1.461,1.578-2.031,2.397
		c-1.069,1.532-1.604,2.72-1.604,3.563c0,0.202,0.05,0.303,0.151,0.303s0.327-0.107,0.677-0.321c0.35-0.214,0.846-0.579,1.488-1.096
		c0.641-0.517,1.354-1.131,2.138-1.844C73.299,30.597,75.319,28.375,77.54,25.608z"/>
	<path fill="#333333" stroke="#FFFFFF" stroke-width="0.25" stroke-miterlimit="10" d="M95.57,32.308
		c0.226,0,0.362,0.172,0.41,0.517c0.048,0.344,0.071,0.701,0.071,1.069c0,0.368-0.036,0.624-0.107,0.766
		c-0.344,0.665-1.099,1.476-2.263,2.432s-2.269,1.434-3.314,1.434c-0.641,0-1.235-0.193-1.782-0.579
		c-0.546-0.386-0.82-1.06-0.82-2.022s0.255-1.906,0.766-2.833c-2.946,3.694-5.255,5.541-6.93,5.541
		c-0.665,0-1.203-0.238-1.612-0.713c-0.41-0.475-0.615-0.965-0.615-1.47c0-0.505,0.071-1.027,0.214-1.568
		c0.143-0.54,0.294-1.024,0.454-1.452c0.16-0.428,0.398-0.956,0.713-1.586s0.549-1.087,0.704-1.372
		c0.154-0.285,0.401-0.716,0.739-1.292c0.339-0.576,0.784-1.351,1.336-2.325c0.552-0.974,1.009-1.696,1.371-2.165
		c0.362-0.469,0.716-0.707,1.06-0.713c0.344-0.006,0.647,0.134,0.909,0.419s0.392,0.517,0.392,0.695c0,0.178-0.398,0.98-1.194,2.405
		c-2.351,4.253-3.527,6.73-3.527,7.43c0,0.178,0.065,0.267,0.196,0.267c0.57,0,1.989-1.235,4.257-3.706
		c2.269-2.471,3.581-4.054,3.938-4.749c0.356-0.695,0.704-1.28,1.042-1.755c0.339-0.475,0.591-0.766,0.757-0.873
		c0.511-0.333,1.17-0.511,1.978-0.535c0.131,0,0.232,0.006,0.303,0.018c0.071,0.012,0.154,0.113,0.249,0.303
		c0.095,0.19,0.143,0.339,0.143,0.445c-0.107,0.333-0.579,1.217-1.416,2.655s-1.304,2.251-1.399,2.441
		c-1.402,2.899-2.102,4.788-2.102,5.667c0,0.499,0.19,0.748,0.57,0.748c0.689-0.095,1.52-0.647,2.494-1.657
		c0.356-0.368,0.71-0.742,1.06-1.122c0.35-0.38,0.567-0.603,0.65-0.668C95.35,32.34,95.451,32.308,95.57,32.308z"/>
	<path fill="#333333" stroke="#FFFFFF" stroke-width="0.25" stroke-miterlimit="10" d="M111.186,11.666
		c0.434,0.339,0.65,0.84,0.65,1.506s-0.368,1.707-1.105,3.127c-0.736,1.419-1.621,2.869-2.655,4.347s-2.203,3.05-3.51,4.713
		c-2.067,2.637-4.05,5.007-5.951,7.11c-0.012,0.143-0.062,0.407-0.151,0.793c-0.089,0.386-0.134,0.775-0.134,1.167
		s0.181,0.745,0.543,1.06c0.362,0.315,0.811,0.472,1.345,0.472s1.108-0.19,1.719-0.57c0.612-0.38,1.143-0.802,1.595-1.265
		c1.188-1.223,1.924-1.835,2.209-1.835c0.285,0,0.428,0.434,0.428,1.301v0.356c0,0.463-0.083,0.802-0.249,1.016
		c-0.998,1.223-2.12,2.135-3.367,2.735c-1.247,0.6-2.429,0.9-3.546,0.9c-1.117,0-1.966-0.341-2.548-1.024
		c-0.582-0.683-0.873-1.618-0.873-2.806c0-2.316,0.621-5.039,1.862-8.17c1.241-3.13,2.64-5.793,4.196-7.991
		c3.504-4.965,6.182-7.447,8.035-7.447C110.251,11.158,110.753,11.328,111.186,11.666z M108.879,14.116
		c0-0.178-0.059-0.267-0.178-0.267c-0.416,0-1.508,1.188-3.278,3.563s-3.05,4.27-3.84,5.684c-0.79,1.413-1.535,3.189-2.236,5.327
		c1.402-1.663,3.341-4.255,5.817-7.777S108.879,14.947,108.879,14.116z"/>
	<path fill="#333333" stroke="#FFFFFF" stroke-width="0.25" stroke-miterlimit="10" d="M117.912,24.361
		c0.903,0,1.354,0.309,1.354,0.926c0,0.333-0.077,0.576-0.232,0.73s-0.484,0.668-0.989,1.541s-1.063,1.99-1.675,3.35
		c-0.612,1.36-1.007,2.521-1.185,3.483c-0.036,0.119-0.053,0.285-0.053,0.499c0,0.653,0.178,0.98,0.535,0.98
		s0.778-0.169,1.265-0.508c0.487-0.339,0.921-0.701,1.301-1.087c0.38-0.386,0.751-0.781,1.114-1.185
		c0.362-0.404,0.579-0.635,0.65-0.695s0.178-0.089,0.321-0.089c0.226,0,0.362,0.172,0.41,0.517c0.048,0.344,0.071,0.701,0.071,1.069
		c0,0.368-0.036,0.624-0.107,0.766c-0.344,0.677-1.102,1.491-2.272,2.441s-2.233,1.425-3.189,1.425c-0.956,0-1.66-0.291-2.111-0.873
		c-0.451-0.582-0.677-1.226-0.677-1.933s0.119-1.327,0.356-1.862c-0.986,1.283-2.117,2.37-3.394,3.26
		c-1.277,0.891-2.319,1.336-3.127,1.336s-1.467-0.243-1.978-0.73c-0.653-0.606-0.98-1.446-0.98-2.521s0.241-2.156,0.722-3.243
		c0.481-1.087,1.114-2.079,1.897-2.976c0.784-0.897,1.645-1.713,2.583-2.45c1.972-1.544,3.789-2.316,5.452-2.316
		c0.641,0,1.164,0.107,1.568,0.321s0.659,0.481,0.766,0.802c0.285-0.428,0.526-0.698,0.722-0.811S117.52,24.361,117.912,24.361z
		 M115.543,26.338c-2.031,0-4.134,1.128-6.307,3.386c-0.772,0.808-1.482,1.776-2.129,2.904c-0.647,1.128-0.971,1.9-0.971,2.316
		c0,0.416,0.119,0.624,0.356,0.624c0.333,0,1.259-0.656,2.779-1.969c1.52-1.313,2.53-2.278,3.029-2.895
		C112.846,30.015,113.927,28.559,115.543,26.338z"/>
	<path fill="#333333" stroke="#FFFFFF" stroke-width="0.25" stroke-miterlimit="10" d="M131.435,14.953l0.73,0.178
		c0.107,0,0.202,0.053,0.285,0.16c0.083,0.107,0.125,0.208,0.125,0.303s-0.125,0.35-0.374,0.766s-0.543,0.888-0.882,1.416
		c-0.339,0.529-0.52,0.817-0.543,0.864c0.926-0.071,1.583-0.107,1.969-0.107c0.386,0,0.65,0.027,0.793,0.08
		c0.143,0.053,0.306,0.202,0.49,0.445s0.353,0.428,0.508,0.552c0.154,0.125,0.232,0.312,0.232,0.561s-0.151,0.46-0.454,0.632
		s-0.627,0.276-0.971,0.312c-2.756,0.273-4.276,0.416-4.561,0.428c-0.962,1.473-2.307,3.768-4.036,6.886
		c-1.728,3.119-2.646,5.07-2.753,5.854c-0.048,0.356-0.071,0.647-0.071,0.873c0,0.463,0.243,0.695,0.73,0.695
		s1.027-0.187,1.621-0.561s1.14-0.781,1.639-1.22c1.33-1.188,2.043-1.782,2.138-1.782c0.309,0,0.463,0.535,0.463,1.604
		c0,0.582-0.267,1.105-0.802,1.568c-1.2,1.033-2.209,1.811-3.029,2.334c-0.82,0.523-1.639,0.784-2.459,0.784
		c-0.178,0-0.344-0.018-0.499-0.053c-0.95-0.178-1.648-0.526-2.093-1.042c-0.445-0.517-0.665-1.215-0.659-2.093
		c0.006-0.879,0.267-1.945,0.784-3.198c0.517-1.253,1.167-2.586,1.951-4.001c1.283-2.304,2.566-4.466,3.848-6.485l-0.677,0.089
		c-1.378,0.154-2.18,0.232-2.405,0.232h-0.16c-0.344,0-0.677-0.068-0.998-0.205c-0.321-0.137-0.481-0.306-0.481-0.508
		c0-0.202,0.086-0.398,0.258-0.588c0.172-0.19,0.276-0.339,0.312-0.445c0.083-0.261,0.395-0.552,0.935-0.873
		c0.54-0.321,0.947-0.49,1.22-0.508c0.273-0.018,0.537-0.033,0.793-0.045c0.255-0.012,0.54-0.024,0.855-0.036
		s0.555-0.024,0.722-0.036l1.604-0.071c0.998-1.497,1.684-2.459,2.058-2.886c0.374-0.428,0.591-0.662,0.65-0.704
		s0.178-0.062,0.356-0.062L131.435,14.953z"/>
	<path fill="#333333" stroke="#FFFFFF" stroke-width="0.25" stroke-miterlimit="10" d="M139.114,24.325
		c0.356,0,0.722,0.16,1.096,0.481c0.374,0.321,0.561,0.811,0.561,1.47s-0.232,1.514-0.695,2.566
		c-0.463,1.052-1.099,2.121-1.906,3.208c-0.808,1.087-1.696,2.108-2.664,3.065s-2.013,1.74-3.136,2.352s-2.141,0.918-3.056,0.918
		c-0.915,0-1.648-0.288-2.2-0.864c-0.552-0.576-0.828-1.378-0.828-2.405c0-1.027,0.252-2.165,0.757-3.412
		c0.505-1.247,1.155-2.35,1.951-3.306s1.657-1.814,2.583-2.575c1.936-1.556,3.635-2.334,5.096-2.334c0.653,0,1.146,0.16,1.479,0.481
		c0.119,0.107,0.178,0.202,0.178,0.285v0.107C138.497,24.337,138.758,24.325,139.114,24.325z M137.315,26.695h-0.125
		c-0.416,0-0.624-0.303-0.624-0.909c-0.867,0.285-1.776,0.784-2.726,1.497c-0.95,0.713-1.8,1.556-2.548,2.531
		c-1.52,1.948-2.292,3.593-2.316,4.935c0,0.665,0.243,0.998,0.73,0.998c0.487,0,1.212-0.321,2.174-0.962s1.915-1.556,2.86-2.744
		c0.944-1.188,1.651-2.218,2.12-3.092c0.469-0.873,0.704-1.467,0.704-1.782C137.564,26.852,137.481,26.695,137.315,26.695z"/>
	<path fill="#333333" stroke="#FFFFFF" stroke-width="0.25" stroke-miterlimit="10" d="M146.205,28.191
		c2.803-3.183,5.191-4.775,7.162-4.775c0.487,0,0.888,0.146,1.203,0.437c0.315,0.291,0.472,0.668,0.472,1.131
		c0,0.463-0.33,1.238-0.989,2.325s-1.268,2.004-1.826,2.753c-0.297,0.38-0.632,0.57-1.007,0.57c-0.374,0-0.665-0.137-0.873-0.41
		c-0.208-0.273-0.312-0.594-0.312-0.963c0-0.82,0.439-1.746,1.318-2.779l-0.036-0.036c-0.392,0.036-1.363,0.808-2.913,2.316
		c-1.55,1.509-2.869,2.86-3.955,4.054c-1.087,1.194-2.266,2.646-3.537,4.356c-0.368,0.511-0.68,0.766-0.935,0.766
		c-0.255,0-0.594-0.08-1.016-0.241c-0.422-0.16-0.677-0.276-0.766-0.347c-0.089-0.071-0.134-0.19-0.134-0.356
		c0-0.166,0.048-0.359,0.143-0.579c0.095-0.22,0.27-0.532,0.526-0.935c0.255-0.404,0.641-1.057,1.158-1.96
		c0.517-0.903,1.321-2.269,2.414-4.099c1.093-1.829,1.746-2.934,1.96-3.314c0.451-0.784,0.82-1.354,1.105-1.71
		c0.535-0.677,1.437-1.016,2.708-1.016c0.285,0,0.428,0.178,0.428,0.535c0,0.558-0.517,1.609-1.55,3.154L146.205,28.191z"/>
</g>
</svg>
